<svg width="24" height="25" viewBox="0 0 24 25" fill="none" xmlns="http://www.w3.org/2000/svg">
<path d="M20.8792 13.4828L12.8708 20.9665C10.675 23.0185 7.1875 23.0185 5.12083 20.9665C2.925 18.9146 2.925 15.6555 5.12083 13.7242L15.4542 4.06781C16.7458 2.98146 18.6833 2.98146 19.975 4.06781C21.2667 5.27486 21.2667 7.20615 19.975 8.29249L11.0625 16.6212C10.675 16.9833 10.0292 16.9833 9.64166 16.6212C9.25416 16.259 9.25416 15.6555 9.64166 15.2934L16.2292 9.13743C16.7458 8.65461 16.7458 7.93038 16.2292 7.44756C15.7125 6.96474 14.9375 6.96474 14.4208 7.44756L7.83333 13.7242C6.4125 15.052 6.4125 17.104 7.83333 18.4317C9.25416 19.6388 11.45 19.6388 12.8708 18.4317L21.7833 10.1031C24.1083 7.93038 24.1083 4.55063 21.7833 2.37794C19.4583 0.205242 15.8417 0.205242 13.5167 2.37794L3.18333 12.0344C1.63333 13.4828 0.858329 15.4141 0.858329 17.3454C0.858329 21.5701 4.475 24.8291 8.99583 24.8291C11.1917 24.8291 13.1292 23.9842 14.6792 22.6564L22.6875 15.1727C23.2042 14.6899 23.2042 13.9656 22.6875 13.4828C22.1708 13 21.3958 13 20.8792 13.4828Z" fill="black"/>
</svg>
