<svg width="13" height="12" viewBox="0 0 13 12" fill="none" xmlns="http://www.w3.org/2000/svg">
<path d="M12.552 2.50326L10.4967 0.447979C10.2285 0.196016 9.87699 0.0514432 9.50909 0.0417618C9.1412 0.0320803 8.78258 0.157966 8.50146 0.395472L1.75052 7.14641C1.50806 7.39092 1.35709 7.71139 1.32296 8.05404L1.00042 11.182C0.990312 11.2918 1.00457 11.4026 1.04217 11.5063C1.07977 11.61 1.13979 11.7042 1.21795 11.7821C1.28804 11.8516 1.37116 11.9066 1.46255 11.9439C1.55394 11.9812 1.6518 12.0002 1.75052 11.9996H1.81803L4.94596 11.7145C5.28861 11.6804 5.60908 11.5294 5.85359 11.287L12.6045 4.53605C12.8666 4.25923 13.0082 3.88984 12.9983 3.50881C12.9885 3.12777 12.828 2.76618 12.552 2.50326ZM4.81095 10.2143L2.56063 10.4244L2.76316 8.17405L7.00125 3.98847L9.02653 6.01375L4.81095 10.2143ZM10.0017 5.00861L7.99139 2.99833L9.45409 1.49812L11.5019 3.54591L10.0017 5.00861Z" fill="black"/>
</svg>
