<svg width="32" height="30" viewBox="0 0 32 30" fill="none" xmlns="http://www.w3.org/2000/svg">
<path d="M31.4896 1.90819C31.4498 0.866139 30.2964 0.223799 29.3643 0.647409L1.34714 13.9187C0.30966 14.3724 0.19541 15.9403 1.16935 16.5311L7.73582 20.8243V27.9874C7.6974 29.2788 9.40377 30.0009 10.298 29.0485L14.2583 25.0887L19.8008 28.7124C20.0481 28.8741 20.3344 28.9572 20.6226 28.9572C21.239 28.9622 21.8228 28.5579 22.0307 27.9756L31.4154 2.523C31.4858 2.3223 31.5183 2.11498 31.4896 1.90819ZM22.8189 7.06956L10.7072 19.1808L5.05351 15.4846L22.8189 7.06956ZM10.7377 24.364V22.7869L11.6914 23.4104L10.7377 24.364ZM19.8663 25.1687L13.274 20.8589L26.2336 7.89966L19.8663 25.1687Z" fill="black"/>
</svg>
