<svg width="14" height="14" viewBox="0 0 14 14" fill="none" xmlns="http://www.w3.org/2000/svg">
<path fill-rule="evenodd" clip-rule="evenodd" d="M13.2812 7.03164C13.2812 10.4836 10.4832 13.2816 7.03125 13.2816C3.57969 13.2816 0.78125 10.4836 0.78125 7.03164C0.78125 3.58008 3.57969 0.781639 7.03125 0.781639C10.4832 0.781639 13.2812 3.58008 13.2812 7.03164Z" fill="#2C3842"/>
<mask id="mask0_418_14" style="mask-type:luminance" maskUnits="userSpaceOnUse" x="0" y="0" width="14" height="14">
<path d="M13.2814 7.03176C13.2814 8.68936 12.6229 10.2791 11.4508 11.4512C10.2787 12.6233 8.689 13.2817 7.03141 13.2817C5.37381 13.2817 3.7841 12.6233 2.612 11.4512C1.4399 10.2791 0.781425 8.68936 0.781425 7.03176C0.781425 5.37416 1.4399 3.78445 2.612 2.61235C3.7841 1.44025 5.37381 0.781776 7.03141 0.781776C8.689 0.781776 10.2787 1.44025 11.4508 2.61235C12.6229 3.78445 13.2814 5.37416 13.2814 7.03176Z" fill="white"/>
</mask>
<g mask="url(#mask0_418_14)">
<path d="M5.70195 9.41952C5.7793 9.40506 4.44883 9.95273 2.57305 10.9754C2.20977 11.1738 2.08789 11.5523 2.08789 11.9664V13.3617H11.9746V11.8047C11.9746 11.4336 11.6316 11.0941 11.3074 10.9148C9.90664 10.1398 8.17383 9.38397 8.19922 9.37889L5.70195 9.41952Z" fill="#B5BDC4"/>
</g>
<path d="M8.23906 9.70274C8.23906 10.0458 8.1028 10.3747 7.86025 10.6173C7.61769 10.8598 7.28872 10.9961 6.9457 10.9961C6.60268 10.9961 6.27371 10.8598 6.03116 10.6173C5.78861 10.3747 5.65234 10.0458 5.65234 9.70274C5.65234 9.35972 5.78861 9.03075 6.03116 8.78819C6.27371 8.54564 6.60268 8.40938 6.9457 8.40938C7.28872 8.40938 7.61769 8.54564 7.86025 8.78819C8.1028 9.03075 8.23906 9.35972 8.23906 9.70274Z" fill="#FFCCAA"/>
<path d="M6.85586 2.05078C7.95234 2.05078 9.16953 3.05586 9.10586 4.30039L8.96406 7.05274C8.9 8.29727 7.63906 9.26641 6.85586 9.26641C6.07266 9.26641 4.81172 8.29727 4.74766 7.05274L4.60625 4.30039C4.54219 3.05586 5.75976 2.05039 6.85625 2.05039L6.85586 2.05078Z" fill="#FFCCAA"/>
<path d="M9.55234 6.57305C9.5582 7.09062 9.30351 7.51289 8.98359 7.51641C8.66406 7.52031 8.4 7.10352 8.39414 6.58594C8.38828 6.06875 8.64297 5.64609 8.96289 5.64258C9.28281 5.63906 9.54648 6.05586 9.55234 6.57305ZM5.3625 6.57305C5.36836 7.09062 5.11367 7.51289 4.79375 7.51641C4.47422 7.52031 4.21016 7.10352 4.2043 6.58594C4.19844 6.06875 4.45312 5.64609 4.77305 5.64258C5.09297 5.63906 5.35664 6.05586 5.3625 6.57305Z" fill="#FFCCAA"/>
<path d="M8.97539 6.80547C9.99687 5.57422 10.0496 3.74766 8.81836 2.72617C7.84648 1.91992 6.3168 1.60351 5.53984 2.47461C5.29883 2.74531 4.95938 2.88633 4.73906 3.10547C3.83984 3.99922 4.03047 5.46992 4.7207 6.5332V5.26367C4.7207 4.74141 5.41445 4.51562 6.10625 4.51562H7.40039C8.20273 4.51562 9.02305 5.04492 8.99805 5.97148L8.97539 6.80547Z" fill="black"/>
</svg>
